<?xml version="1.0" encoding="UTF-8"?>
<svg xmlns="http://www.w3.org/2000/svg" xmlns:xlink="http://www.w3.org/1999/xlink" width="48px" height="48px" viewBox="0 0 48 48" version="1.1">
<g id="surface1">
<path style=" stroke:none;fill-rule:nonzero;fill:rgb(69.019608%,9.019608%,21.176471%);fill-opacity:1;" d="M 32.351562 14.476562 L 20.214844 10.289062 C 19.0625 9.894531 17.777344 9.972656 16.675781 10.503906 L 16.066406 10.800781 C 15.238281 11.203125 14.265625 11.261719 13.402344 10.945312 L 12.359375 10.574219 C 12.308594 10.542969 12.261719 10.515625 12.210938 10.496094 L 6 8.382812 C 5.851562 8.332031 5.683594 8.34375 5.546875 8.410156 C 5.410156 8.480469 5.300781 8.597656 5.253906 8.746094 L 0.03125 23.972656 C -0.0742188 24.277344 0.09375 24.609375 0.398438 24.71875 L 6.617188 26.851562 C 6.6875 26.878906 6.746094 26.890625 6.816406 26.890625 C 6.902344 26.890625 6.992188 26.871094 7.070312 26.832031 C 7.207031 26.761719 7.316406 26.644531 7.367188 26.496094 L 12.390625 11.851562 L 13.019531 12.078125 C 14.179688 12.488281 15.484375 12.410156 16.597656 11.871094 L 17.207031 11.574219 C 18.019531 11.171875 18.984375 11.113281 19.839844 11.410156 L 31.527344 15.4375 C 31.4375 15.949219 31.191406 16.796875 30.554688 17.238281 C 29.984375 17.632812 29.160156 17.652344 28.117188 17.285156 L 23.015625 15.546875 C 22.859375 15.496094 22.691406 15.507812 22.542969 15.585938 C 22.394531 15.664062 22.296875 15.800781 22.25 15.960938 C 22.238281 15.988281 21.480469 18.78125 19.121094 20.039062 C 17.628906 20.84375 15.78125 20.875 13.628906 20.136719 C 13.324219 20.03125 12.988281 20.195312 12.878906 20.5 C 12.773438 20.804688 12.9375 21.140625 13.242188 21.25 C 14.394531 21.640625 15.484375 21.839844 16.496094 21.839844 C 17.65625 21.839844 18.71875 21.582031 19.683594 21.0625 C 21.785156 19.929688 22.796875 17.867188 23.183594 16.84375 L 27.714844 18.398438 C 29.136719 18.890625 30.308594 18.820312 31.210938 18.199219 C 32.667969 17.199219 32.734375 15.132812 32.746094 15.046875 C 32.757812 14.789062 32.589844 14.554688 32.351562 14.476562 Z M 6.453125 25.542969 L 1.339844 23.792969 L 6.175781 9.6875 L 11.148438 11.390625 C 11.191406 11.410156 11.230469 11.429688 11.269531 11.449219 L 11.289062 11.457031 Z M 6.453125 25.542969 "/>
<path style=" stroke:none;fill-rule:nonzero;fill:rgb(69.019608%,9.019608%,21.176471%);fill-opacity:1;" d="M 47.941406 23.195312 L 40.847656 8.773438 C 40.777344 8.636719 40.660156 8.527344 40.511719 8.480469 C 40.363281 8.429688 40.195312 8.441406 40.058594 8.507812 L 34.152344 11.398438 C 33.855469 11.546875 33.738281 11.890625 33.875 12.183594 L 40.757812 26.242188 L 38.449219 28.355469 C 36.492188 30.152344 34.28125 31.65625 31.890625 32.828125 L 20.578125 38.363281 C 20.261719 38.519531 19.910156 38.539062 19.574219 38.421875 C 19.238281 38.304688 18.976562 38.066406 18.816406 37.753906 C 18.660156 37.4375 18.640625 37.082031 18.757812 36.75 C 18.875 36.414062 19.113281 36.148438 19.425781 35.992188 L 25.746094 32.894531 C 26.042969 32.75 26.160156 32.40625 26.023438 32.109375 C 25.875 31.816406 25.519531 31.695312 25.234375 31.835938 L 19.054688 34.863281 L 15.9375 36.386719 C 15.289062 36.699219 14.492188 36.433594 14.179688 35.785156 C 13.863281 35.136719 14.128906 34.351562 14.777344 34.027344 L 23.859375 29.582031 C 24.15625 29.4375 24.273438 29.09375 24.136719 28.796875 C 23.988281 28.503906 23.632812 28.382812 23.347656 28.523438 L 16.625 31.816406 L 14.265625 32.964844 L 13.15625 33.507812 C 12.507812 33.820312 11.710938 33.554688 11.394531 32.90625 C 11.082031 32.257812 11.347656 31.460938 11.996094 31.148438 L 13.117188 30.597656 L 21.246094 26.617188 C 21.539062 26.46875 21.660156 26.125 21.519531 25.828125 C 21.375 25.535156 21.019531 25.417969 20.734375 25.554688 L 15.515625 28.109375 L 12.605469 29.535156 C 12.289062 29.691406 11.9375 29.710938 11.601562 29.59375 C 11.269531 29.476562 11.003906 29.238281 10.84375 28.925781 C 10.6875 28.609375 10.667969 28.257812 10.785156 27.921875 C 10.90625 27.589844 11.140625 27.324219 11.457031 27.164062 L 15.769531 25.050781 C 16.066406 24.90625 16.183594 24.5625 16.046875 24.265625 C 15.898438 23.972656 15.542969 23.851562 15.257812 23.992188 L 10.945312 26.105469 C 10.34375 26.398438 9.890625 26.910156 9.675781 27.539062 C 9.460938 28.167969 9.5 28.847656 9.792969 29.445312 C 10.019531 29.917969 10.394531 30.292969 10.84375 30.539062 C 10.097656 31.273438 9.871094 32.425781 10.355469 33.40625 C 10.785156 34.292969 11.671875 34.804688 12.59375 34.804688 C 12.703125 34.804688 12.8125 34.792969 12.917969 34.785156 C 12.839844 35.273438 12.898438 35.796875 13.136719 36.289062 C 13.570312 37.171875 14.453125 37.683594 15.378906 37.683594 C 15.742188 37.683594 16.113281 37.605469 16.46875 37.429688 L 17.539062 36.898438 C 17.492188 37.359375 17.570312 37.820312 17.785156 38.242188 C 18.082031 38.84375 18.589844 39.296875 19.21875 39.511719 C 19.484375 39.601562 19.761719 39.648438 20.035156 39.648438 C 20.410156 39.648438 20.785156 39.5625 21.128906 39.394531 L 32.441406 33.859375 C 34.9375 32.640625 37.226562 31.066406 39.273438 29.191406 L 41.839844 26.832031 L 47.667969 23.980469 C 47.960938 23.832031 48.082031 23.488281 47.941406 23.195312 Z M 41.75 25.59375 L 35.195312 12.195312 L 40.050781 9.828125 L 46.597656 23.222656 Z M 41.75 25.59375 "/>
</g>
</svg>
